<svg xmlns="http://www.w3.org/2000/svg" viewBox="0 0 124.94 21.74"><defs><style>.cls-1{fill:#fff;}.cls-2{opacity:0.5;}</style></defs><title>Asset 4</title><g id="Layer_2" data-name="Layer 2"><g id="圖層_1" data-name="圖層 1"><path class="cls-1" d="M31,12.63a1.17,1.17,0,0,1,.05-.41.27.27,0,0,1,.19-.17,1.85,1.85,0,0,1,.57-.13c.27,0,.63-.07,1.1-.1l1.21-.08c.47,0,.88-.07,1.22-.11a2.24,2.24,0,0,0,.84-.27,1.15,1.15,0,0,0,.47-.59,2.94,2.94,0,0,0,.13-1A4.18,4.18,0,0,0,36.66,9a1.44,1.44,0,0,0-.32-.67,1.59,1.59,0,0,0-.67-.43,3.24,3.24,0,0,0-1.07-.15H32.12a2.77,2.77,0,0,0-1.64.41,1.66,1.66,0,0,0-.57,1.42v.71H31V9.78a2.13,2.13,0,0,1,.08-.64.68.68,0,0,1,.21-.3.69.69,0,0,1,.34-.13,4.44,4.44,0,0,1,.55,0H34.6a2.2,2.2,0,0,1,.59.07.72.72,0,0,1,.3.17.63.63,0,0,1,.14.31,2.68,2.68,0,0,1,0,.52,2.81,2.81,0,0,1,0,.45.44.44,0,0,1-.11.25.71.71,0,0,1-.3.16,3,3,0,0,1-.65.1L32,10.9a5.11,5.11,0,0,0-.89.13,1.89,1.89,0,0,0-.67.31,1.33,1.33,0,0,0-.41.57,2.64,2.64,0,0,0-.12.85V14h6.93V13H31Z"/><path class="cls-1" d="M45.31,7.78H44L39.1,11.57v1.16h5.15V14h1.06V12.73h1v-1h-1Zm-1.06,4h-3.8l3.8-2.93Z"/><polygon class="cls-1" points="47.65 14.02 48.69 14.02 51.89 7.72 50.85 7.72 47.65 14.02"/><polygon class="cls-1" points="53.3 8.75 59.09 8.75 54.54 13.95 55.91 13.95 60.34 8.88 60.34 7.79 53.3 7.79 53.3 8.75"/><polygon class="cls-1" points="68.43 13.95 69.53 13.95 69.53 11.26 74.14 11.26 74.14 10.3 69.53 10.3 69.53 8.75 74.32 8.75 74.32 7.79 68.43 7.79 68.43 13.95"/><rect class="cls-1" x="76.85" y="7.78" width="1.11" height="6.17"/><polygon class="cls-1" points="80.2 8.75 83.16 8.75 83.16 13.95 84.27 13.95 84.27 8.75 87.22 8.75 87.22 7.79 80.2 7.79 80.2 8.75"/><polygon class="cls-1" points="95.93 12.71 90.79 7.79 89.39 7.79 89.39 13.95 90.5 13.95 90.5 9.03 95.64 13.95 97.04 13.95 97.04 7.79 95.93 7.79 95.93 12.71"/><polygon class="cls-1" points="100.95 11.26 105.72 11.26 105.72 10.3 100.95 10.3 100.95 8.75 105.91 8.75 105.91 7.79 99.84 7.79 99.84 13.95 105.94 13.95 105.94 12.99 100.95 12.99 100.95 11.26"/><path class="cls-1" d="M114.76,10.71a3.23,3.23,0,0,0-1.76-.37h-2.35a4.57,4.57,0,0,1-.72-.05.93.93,0,0,1-.38-.13.33.33,0,0,1-.15-.2,1.42,1.42,0,0,1-.05-.39,1.12,1.12,0,0,1,.09-.5.61.61,0,0,1,.28-.24,2,2,0,0,1,.59-.12c.24,0,.56,0,1,0h.85c.51,0,.91,0,1.2,0a1.6,1.6,0,0,1,.59.15.36.36,0,0,1,.19.23,3.29,3.29,0,0,1,0,.53v.15h1.06V9.42a2.07,2.07,0,0,0-.12-.73,1.2,1.2,0,0,0-.44-.56,2,2,0,0,0-.81-.31,6.25,6.25,0,0,0-1.25-.1h-1.7a7,7,0,0,0-1.09.07,2.33,2.33,0,0,0-.82.27,1.28,1.28,0,0,0-.51.57,2.06,2.06,0,0,0-.17.88,2.27,2.27,0,0,0,.18,1,1.19,1.19,0,0,0,.62.59,3.14,3.14,0,0,0,1,.23c.42,0,.93,0,1.53,0h1.5a3.39,3.39,0,0,1,.6,0,.74.74,0,0,1,.32.11.41.41,0,0,1,.15.21,1.15,1.15,0,0,1,0,.4,1.53,1.53,0,0,1-.06.47.51.51,0,0,1-.18.26,1,1,0,0,1-.4.15,4.16,4.16,0,0,1-.69.05H110.5a3.09,3.09,0,0,1-.59-.05,1.1,1.1,0,0,1-.34-.13.62.62,0,0,1-.16-.2.91.91,0,0,1,0-.31V11.8H108.3v.58a1.62,1.62,0,0,0,.2.85,1.39,1.39,0,0,0,.54.51,2.2,2.2,0,0,0,.74.22,5.87,5.87,0,0,0,.85.06h2.2a8.51,8.51,0,0,0,.88,0,2.54,2.54,0,0,0,.81-.21,1.43,1.43,0,0,0,.6-.52,1.69,1.69,0,0,0,.22-.93v-.38A1.39,1.39,0,0,0,114.76,10.71Z"/><path class="cls-1" d="M124.35,10.71a3.2,3.2,0,0,0-1.76-.37h-2.34a4.48,4.48,0,0,1-.72-.05,1,1,0,0,1-.39-.13A.35.35,0,0,1,119,10a1.42,1.42,0,0,1,0-.39,1.12,1.12,0,0,1,.09-.5.64.64,0,0,1,.27-.24,2.1,2.1,0,0,1,.59-.12c.25,0,.56,0,1,0h.84c.51,0,.92,0,1.21,0a1.6,1.6,0,0,1,.59.15.32.32,0,0,1,.18.23,3.12,3.12,0,0,1,.06.53v.15h1.06V9.42a2,2,0,0,0-.12-.73,1.25,1.25,0,0,0-.44-.56,2.13,2.13,0,0,0-.82-.31,6.2,6.2,0,0,0-1.24-.1h-1.71a7.13,7.13,0,0,0-1.09.07,2.27,2.27,0,0,0-.81.27,1.28,1.28,0,0,0-.51.57,2,2,0,0,0-.17.88,2.31,2.31,0,0,0,.18,1,1.21,1.21,0,0,0,.61.59,3.15,3.15,0,0,0,1,.23c.41,0,.93,0,1.53,0h1.5a3.2,3.2,0,0,1,.59,0,.85.85,0,0,1,.33.11.41.41,0,0,1,.15.21,1.45,1.45,0,0,1,0,.4,1.65,1.65,0,0,1-.06.48.53.53,0,0,1-.19.25.88.88,0,0,1-.39.15,4.25,4.25,0,0,1-.69.05h-2.46a3,3,0,0,1-.58-.05.83.83,0,0,1-.34-.14.42.42,0,0,1-.16-.19.91.91,0,0,1-.05-.31V11.8H117.9v.58a1.64,1.64,0,0,0,.2.85,1.33,1.33,0,0,0,.54.51,2.13,2.13,0,0,0,.74.22,5.87,5.87,0,0,0,.85.06h2.2a8.64,8.64,0,0,0,.88,0,2.48,2.48,0,0,0,.8-.21,1.37,1.37,0,0,0,.6-.52,1.68,1.68,0,0,0,.23-.93v-.38A1.4,1.4,0,0,0,124.35,10.71Z"/><path class="cls-1" d="M10.87,0A10.87,10.87,0,1,0,21.74,10.87,10.87,10.87,0,0,0,10.87,0ZM6.81,14.49l2.32-3.36H3.46L8,4.45c.31-.47.19-.83-.23-.83H5.89l.3-.43H10c1,0,1.39.56.73,1.49L6.49,10.6l-.75.1H9.43l2.43-3.54c.43-.61.68-.61,1-.61h2.48L9.8,14.48Zm11.13-2.3L14.31,17.3C13.6,18.3,13.08,19,12,19H10.52l5.14-7.62,1.1-.21h-4l.29-.43h4.12C18.26,10.7,18.6,11.26,17.94,12.19Z"/><g class="cls-2"><path class="cls-1" d="M77.62,19.64V21h-.76V17h2c.87,0,1.21.3,1.21,1.2,0,.59,0,1-.71,1.13v0c.54,0,.67.34.67.9V21h-.76v-.75c0-.33-.14-.57-.51-.57Zm1-.66c.56,0,.7-.11.7-.7s-.1-.66-.65-.66H77.62V19Z"/><path class="cls-1" d="M83.19,20.07c0,.88-.5.92-1.3.92-1.07,0-1.29-.34-1.29-1.42s.16-1.44,1.29-1.44,1.3.34,1.3,1.55H81.27c0,.61,0,.8.62.8.37,0,.63,0,.63-.41Zm-.67-.81c0-.58-.08-.62-.63-.62s-.62.12-.62.62Z"/><path class="cls-1" d="M87,21H86l-.5-2.25h0L85,21h-1l-.63-2.8h.66l.47,2.34h0l.54-2.34H86l.54,2.34h0L87,18.16h.65Z"/><path class="cls-1" d="M88.58,18.16v.37h0a.73.73,0,0,1,.75-.4c.59,0,.73.35.73.88v.22h-.62v-.14c0-.28,0-.45-.35-.45s-.51.23-.5.59V21h-.67v-2.8Z"/><path class="cls-1" d="M91.12,17.53h-.67V17h.67Zm0,3.43h-.67v-2.8h.67Z"/><path class="cls-1" d="M91.4,18.16h.35v-.63h.67v.63h1.07v.51H92.42v1.44c0,.25,0,.37.29.37s.33-.3.33-.59h.6c0,.84-.21,1.1-.93,1.1s-1-.17-1-.88V18.67H91.4Z"/><path class="cls-1" d="M96.49,20.07c0,.88-.51.92-1.31.92-1.07,0-1.29-.34-1.29-1.42s.16-1.44,1.29-1.44,1.31.34,1.31,1.55H94.57c0,.61,0,.8.61.8.38,0,.64,0,.64-.41Zm-.67-.81c0-.58-.09-.62-.64-.62s-.61.12-.61.62Z"/><path class="cls-1" d="M98.57,18.16h.35v-.63h.67v.63h1.07v.51H99.59v1.44c0,.25,0,.37.29.37s.33-.3.33-.59h.59c0,.84-.2,1.1-.92,1.1s-1-.17-1-.88V18.67h-.35Z"/><path class="cls-1" d="M101.84,18.58h0c.15-.41.49-.45.88-.45.74,0,1,.3,1,1V21H103V19.18c0-.4-.09-.54-.52-.54-.59,0-.67.28-.67.78V21h-.67V17h.67Z"/><path class="cls-1" d="M106.84,20.07c0,.88-.51.92-1.3.92-1.07,0-1.29-.34-1.29-1.42s.16-1.44,1.29-1.44,1.3.34,1.3,1.55h-1.92c0,.61,0,.8.62.8.37,0,.63,0,.63-.41Zm-.67-.81c0-.58-.09-.62-.63-.62s-.62.12-.62.62Z"/><path class="cls-1" d="M110.75,18.67h-.68V21h-.67V18.67H109v-.51h.39v-.24c0-.67.16-1,.89-1h.44v.51h-.2c-.46,0-.46.18-.46.52v.17h.68Z"/><path class="cls-1" d="M113,21v-.43h0a.84.84,0,0,1-.88.46c-.56,0-.93-.19-.94-.8v-2h.67v1.76c0,.4,0,.56.47.56s.68-.22.68-.7V18.16h.68V21Z"/><path class="cls-1" d="M113.93,18.16h.35v-.63H115v.63H116v.51H115v1.44c0,.25,0,.37.29.37s.33-.3.33-.59h.6c0,.84-.21,1.1-.93,1.1s-1-.17-1-.88V18.67h-.35Z"/><path class="cls-1" d="M118.37,21v-.43h0a.84.84,0,0,1-.88.46c-.56,0-.93-.19-.94-.8v-2h.67v1.76c0,.4,0,.56.47.56s.68-.22.68-.7V18.16H119V21Z"/><path class="cls-1" d="M120.29,18.16v.37h0a.72.72,0,0,1,.74-.4c.59,0,.74.35.74.88v.22h-.63v-.14c0-.28,0-.45-.34-.45s-.52.23-.51.59V21h-.67v-2.8Z"/><path class="cls-1" d="M124.72,20.07c0,.88-.5.92-1.3.92-1.07,0-1.29-.34-1.29-1.42s.16-1.44,1.29-1.44,1.3.34,1.3,1.55H122.8c0,.61,0,.8.62.8.37,0,.63,0,.63-.41Zm-.67-.81c0-.58-.08-.62-.63-.62s-.62.12-.62.62Z"/></g></g></g></svg>